<?xml version="1.0" encoding="UTF-8"?>
<svg width="16px" height="67px" viewBox="0 0 16 67" version="1.1" xmlns="http://www.w3.org/2000/svg" xmlns:xlink="http://www.w3.org/1999/xlink">
    <!-- Generator: Sketch 48.2 (47327) - http://www.bohemiancoding.com/sketch -->
    <title>Group</title>
    <desc>Created with Sketch.</desc>
    <defs></defs>
    <g id="Artboard-2" stroke="none" stroke-width="1" fill="none" fill-rule="evenodd">
        <g id="Group" fill="#9B9B9B" fill-rule="nonzero">
            <path d="M4.9,0 C2.191,0 0,2.191 0,4.9 C0,8.575 4.9,14 4.9,14 C4.9,14 9.8,8.575 9.8,4.9 C9.8,2.191 7.609,0 4.9,0 Z M4.9,6.65 C3.934,6.65 3.15,5.866 3.15,4.9 C3.15,3.934 3.934,3.15 4.9,3.15 C5.866,3.15 6.65,3.934 6.65,4.9 C6.65,5.866 5.866,6.65 4.9,6.65 Z" id="Shape"></path>
            <path d="M13.2222222,56.8888889 L2.33333333,56.8888889 C1.04222222,56.8888889 0,57.9311111 0,59.2222222 L0,63.8888889 L3.11111111,63.8888889 L3.11111111,67 L12.4444444,67 L12.4444444,63.8888889 L15.5555556,63.8888889 L15.5555556,59.2222222 C15.5555556,57.9311111 14.5133333,56.8888889 13.2222222,56.8888889 Z M10.8888889,65.4444444 L4.66666667,65.4444444 L4.66666667,61.5555556 L10.8888889,61.5555556 L10.8888889,65.4444444 Z M13.2222222,60 C12.7944444,60 12.4444444,59.65 12.4444444,59.2222222 C12.4444444,58.7944444 12.7944444,58.4444444 13.2222222,58.4444444 C13.65,58.4444444 14,58.7944444 14,59.2222222 C14,59.65 13.65,60 13.2222222,60 Z M12.4444444,53 L3.11111111,53 L3.11111111,56.1111111 L12.4444444,56.1111111 L12.4444444,53 Z" id="Shape"></path>
            <path d="M2.81555867,32.0588892 C3.93555867,34.26 5.74,36.0566667 7.941108,37.1844441 L9.65222533,35.4733333 C9.86222533,35.2633333 10.1733333,35.1933333 10.4455587,35.2866667 C11.3166667,35.5744441 12.2577747,35.73 13.2222253,35.73 C13.65,35.73 14,36.08 14,36.5077775 L14,39.2222225 C14,39.65 13.65,40 13.2222253,40 C5.918892,40 0,34.0811108 0,26.7777775 C0,26.35 0.35,26 0.777774667,26 L3.5,26 C3.92777467,26 4.27777467,26.35 4.27777467,26.7777775 C4.27777467,27.75 4.43333333,28.6833333 4.721108,29.5544441 C4.80666667,29.8266667 4.74444133,30.13 4.52666667,30.3477775 L2.81555867,32.0588892 Z" id="ic_phone"></path>
        </g>
    </g>
</svg>