<?xml version="1.0" encoding="UTF-8"?>
<svg width="14px" height="14px" viewBox="0 0 14 14" version="1.1" xmlns="http://www.w3.org/2000/svg" xmlns:xlink="http://www.w3.org/1999/xlink">
    <!-- Generator: Sketch 48.2 (47327) - http://www.bohemiancoding.com/sketch -->
    <title>Group 6 Copy</title>
    <desc>Created with Sketch.</desc>
    <defs></defs>
    <g id="Artboard" stroke="none" stroke-width="1" fill="none" fill-rule="evenodd" transform="translate(-713.000000, -75.000000)">
        <g id="Group-13" fill="#3B5998">
            <g id="Group-6-Copy" transform="translate(713.000000, 75.000000)">
                <path d="M13.2273705,14 L9.659775,14 L9.659775,8.5782463 L11.479611,8.5782463 L11.7522813,6.46552804 L9.659775,6.46552804 L9.659775,5.11666803 C9.659775,4.50497126 9.82986026,4.08776661 10.7069816,4.08776661 L11.8258833,4.08738525 L11.8258833,2.19776089 C11.6321539,2.17182861 10.9682112,2.11424369 10.1955817,2.11424369 C8.58244123,2.11424369 7.47803111,3.09890768 7.47803111,4.90730299 L7.47803111,6.46552804 L5.65361881,6.46552804 L5.65361881,8.5782463 L7.47803111,8.5782463 L7.47803111,14 L0.772629457,14 C0.345890877,14 0,13.6541091 0,13.2273705 L0,0.772629457 C0,0.345890877 0.345890877,0 0.772629457,0 L13.2273705,0 C13.6541091,0 14,0.345890877 14,0.772629457 L14,13.2273705 C14,13.6541091 13.6541091,14 13.2273705,14 Z" id="Facebook"></path>
            </g>
        </g>
    </g>
</svg>