<svg width="114" height="131" viewBox="0 0 114 131" fill="none" xmlns="http://www.w3.org/2000/svg">
<path d="M93.6604 103.381C95.0558 101.797 94.9955 99.4126 93.5262 98.0579C92.4012 97.0209 90.7773 96.889 89.4516 97.5933L88.1049 96.3815L87.4111 95.0372C87.2521 94.7301 87.2636 94.3661 87.4309 94.064C87.8823 93.2497 88.2295 92.3996 88.4774 91.5301C88.561 91.2353 88.7682 90.9919 89.0482 90.8689L89.9578 90.4671L91.5807 90.5545C91.9858 91.1997 92.687 91.6454 93.5061 91.6897C94.8947 91.7643 96.0746 90.6559 96.063 89.2427C96.0536 88.0255 95.1149 86.987 93.9052 86.8549C93.1349 86.7702 92.4186 87.0528 91.9183 87.5543L90.1201 87.4568L89.2986 86.9829C89.0162 86.8199 88.8259 86.5376 88.7732 86.2162C88.5932 85.1341 88.2667 84.0753 87.7999 83.0732C87.6426 82.7363 87.6761 82.3416 87.8804 82.0317L88.9309 80.436L90.8159 78.9146C91.7902 79.2954 92.9361 79.1575 93.8082 78.4537C95.1263 77.3894 95.3125 75.444 94.2053 74.1477C93.2066 72.9779 91.4499 72.7518 90.1894 73.634C89.2063 74.3233 88.7694 75.4717 88.9333 76.5601L87.0378 78.0908L85.4163 78.7188C84.9813 78.8874 84.4921 78.8128 84.1194 78.5314C84.1172 78.5297 84.1157 78.5286 84.1135 78.527C83.4706 78.0435 82.7936 77.6344 82.0952 77.2966C81.6788 77.0962 81.391 76.7003 81.3385 76.241L81.1384 74.4881L81.7466 71.4187C82.3893 71.0933 82.8812 70.4867 83.0328 69.7253C83.303 68.3595 82.3697 67.0341 80.9677 66.8471C79.7667 66.6881 78.6125 67.4627 78.3057 68.6354C78.0965 69.4351 78.3088 70.2343 78.7938 70.813L78.1811 73.9021L77.2513 75.585C77.0791 75.895 76.7591 76.0972 76.405 76.1092C75.0053 76.1609 73.6199 76.4522 72.3145 76.975C71.9901 77.1049 71.6212 77.0541 71.3403 76.8463L69.8098 75.7183L68.5398 73.9441C69.201 72.8217 69.184 71.3699 68.3772 70.2432C67.2936 68.7289 65.1947 68.372 63.6731 69.4363C62.1521 70.4998 61.7703 72.6272 62.8285 74.1523C63.5691 75.22 64.809 75.728 66.0111 75.5888L67.359 77.4721L67.9572 79.361C68.0467 79.6411 67.9775 79.9457 67.7827 80.165C67.5663 80.4083 67.3586 80.6616 67.1597 80.9261C66.0789 82.3632 65.3687 83.9653 65.0102 85.6166C64.9571 85.8585 64.799 86.0641 64.5786 86.1767L63.6092 86.6704L61.984 86.6732C61.5433 86.0508 60.8189 85.6451 59.999 85.6463C58.6075 85.6488 57.4912 86.8212 57.5811 88.2312C57.6583 89.4453 58.6532 90.4305 59.8685 90.4956C60.6425 90.537 61.3416 90.2162 61.813 89.6873L63.6142 89.6845L64.9274 90.3489C65.1817 91.7652 65.6872 93.1381 66.4322 94.3943L65.4619 96.2504L63.8357 97.6985C62.6235 97.1964 61.214 97.3545 60.2119 98.225C58.7965 99.4554 58.7302 101.641 60.0648 103.106C61.3986 104.57 63.627 104.761 65.0424 103.53C66.1018 102.61 66.4054 101.155 65.9316 99.8672L67.4658 98.5018L69.2163 97.8306C69.331 97.7868 69.4596 97.8053 69.5574 97.8788L69.5588 97.8799C71.381 99.2503 73.4683 100.026 75.5873 100.242C75.7033 100.254 75.8067 100.322 75.8614 100.425L76.6732 101.94L76.9443 104.608C76.4325 105.106 76.1436 105.825 76.2219 106.592C76.3633 107.976 77.6409 108.969 79.0351 108.739C80.2579 108.538 81.1436 107.415 81.0566 106.179C81.0005 105.378 80.5653 104.701 79.9429 104.302L79.6717 101.634L80.1552 100.008C80.1884 99.8948 80.2772 99.8074 80.3898 99.7724C81.5559 99.4164 82.6735 98.8833 83.6978 98.179C83.9797 97.9861 84.3369 97.9395 84.6557 98.0632L86.0878 98.6214L87.5227 99.9133C87.0823 101.283 87.4052 102.813 88.4737 103.799C89.943 105.153 92.2657 104.967 93.6604 103.381Z" fill="#2F80ED"/>
<path d="M82.225 81.0383C86.1822 84.0144 86.9775 89.6349 84.0015 93.5921C81.0254 97.5493 75.4048 98.3447 71.4476 95.3686C67.4904 92.3925 66.6951 86.772 69.6711 82.8148C72.6472 78.8576 78.2678 78.0622 82.225 81.0383Z" fill="#2D9CDB"/>
<path d="M71.8551 84.4572C69.1581 88.0433 69.5582 92.995 72.6018 96.1072C72.2048 95.8938 71.8189 95.6478 71.4476 95.3686C67.4903 92.3925 66.695 86.7721 69.6711 82.8148C72.6473 78.8575 78.2677 78.0621 82.225 81.0383C82.5962 81.3175 82.9397 81.62 83.2548 81.9422C79.4203 79.8818 74.5519 80.8713 71.8551 84.4572Z" fill="#56CCF2"/>
<path d="M54.9839 92.163C56.1108 93.0105 56.3373 94.611 55.4898 95.7379C54.6423 96.8648 53.0417 97.0913 51.9148 96.2438C50.7879 95.3963 50.5614 93.7958 51.4089 92.6689C52.2564 91.5419 53.857 91.3154 54.9839 92.163Z" fill="#2F80ED"/>
<path d="M74.1331 65.54C74.8774 66.0998 75.027 67.157 74.4672 67.9013C73.9074 68.6457 72.8502 68.7953 72.1059 68.2355C71.3616 67.6757 71.212 66.6185 71.7718 65.8742C72.3315 65.1298 73.3887 64.9802 74.1331 65.54Z" fill="#2F80ED"/>
<path d="M101.022 81.2987C102.119 82.1232 102.339 83.6804 101.515 84.7767C100.69 85.8731 99.133 86.0934 98.0366 85.2689C96.9403 84.4444 96.7199 82.8872 97.5444 81.7908C98.369 80.6945 99.9261 80.4741 101.022 81.2987Z" fill="#2F80ED"/>
<path d="M74.5428 86.6746C75.5649 87.4434 75.7704 88.8951 75.0017 89.9172C74.2329 90.9394 72.7812 91.1448 71.7591 90.3761C70.7369 89.6074 70.5315 88.1556 71.3002 87.1335C72.0689 86.1114 73.5207 85.9059 74.5428 86.6746Z" fill="#2F80ED"/>
<path d="M79.9073 82.6345C80.603 83.1577 80.7428 84.1458 80.2196 84.8416C79.6964 85.5373 78.7082 85.6771 78.0125 85.1539C77.3168 84.6307 77.177 83.6425 77.7002 82.9468C78.2234 82.2511 79.2116 82.1112 79.9073 82.6345Z" fill="#2F80ED"/>
<path d="M80.8737 89.5837C81.4579 90.0231 81.5754 90.8528 81.136 91.437C80.6966 92.0213 79.8669 92.1387 79.2827 91.6993C78.6984 91.26 78.581 90.4302 79.0204 89.846C79.4598 89.2618 80.2895 89.1443 80.8737 89.5837Z" fill="#2F80ED"/>
<path d="M72.4064 40.775C72.0961 37.6296 69.4248 35.262 66.4419 35.4876C64.1582 35.6605 62.3559 37.3036 61.7736 39.4738L59.0723 39.7111L56.8924 39.0983C56.3939 38.9589 56.0072 38.5747 55.8473 38.0831C55.4167 36.7577 54.8404 35.5098 54.1415 34.3508C53.9042 33.9582 53.8493 33.483 54.0005 33.0509L54.4891 31.645L56.2416 29.9576C57.3614 30.1727 58.5652 29.8601 59.4498 29.0086C60.9491 27.5646 60.9401 25.1414 59.3812 23.7114C58.0391 22.4792 55.944 22.4468 54.5645 23.6361C53.6854 24.3929 53.2635 25.4656 53.3018 26.5252L51.3594 28.3943L50.0019 28.8097C49.5353 28.9526 49.032 28.8727 48.6263 28.6022C47.2579 27.6947 45.7656 26.9712 44.1919 26.4592C43.6626 26.2875 43.2646 25.848 43.1339 25.3079L42.4595 22.529L42.7182 18.9123C44.1297 18.2344 45.1486 16.8392 45.2684 15.1661C45.4488 12.6366 43.5092 10.4468 40.9599 10.3356C38.6598 10.2347 36.6189 11.927 36.2979 14.2075C36.0489 15.9874 36.8601 17.6381 38.2188 18.5697L37.9596 22.2074L36.9918 24.6235C36.7322 25.2719 36.1513 25.7313 35.4627 25.852C35.4586 25.8527 35.4559 25.8532 35.4519 25.8539C34.2663 26.0641 33.1273 26.3876 32.0446 26.8074C31.4001 27.0587 30.6729 26.9696 30.1164 26.5582L27.9932 24.9878L25.2539 21.1886C25.5539 20.1529 25.3919 18.9951 24.7131 18.0519C23.4939 16.3618 21.09 16.0306 19.4542 17.3744C18.0541 18.5269 17.7238 20.5812 18.6944 22.1141C19.3563 23.1595 20.4478 23.743 21.5765 23.8028L24.3328 27.627L25.226 30.363C25.3896 30.8678 25.2842 31.4246 24.9359 31.8246C23.5636 33.4095 22.4681 35.2236 21.7079 37.1864C21.519 37.6741 21.0867 38.0261 20.5725 38.1214L17.7753 38.6454L14.5366 38.2246C13.9829 36.355 12.3761 34.8915 10.3191 34.6246C7.5552 34.2649 5.02183 36.1983 4.63355 38.9505C4.24504 41.7013 6.18424 44.291 8.93403 44.6894C10.8591 44.9686 12.6809 44.1299 13.7556 42.6717L17.1933 43.1188L19.8718 44.3922C20.2699 44.5801 20.5327 44.9668 20.5739 45.4039C20.6194 45.8892 20.6846 46.3752 20.7711 46.8629C21.241 49.5133 22.2698 51.9261 23.7116 54.0044C23.9223 54.3095 23.986 54.6923 23.8842 55.0485L23.435 56.6138L21.779 58.3958C20.6478 58.2428 19.4642 58.6218 18.6285 59.5205C17.2108 61.0464 17.3546 63.4653 18.9899 64.8063C20.398 65.9612 22.4921 65.8777 23.8039 64.6137C24.6395 63.8087 25.0019 62.7158 24.9041 61.6599L26.7398 59.6852L28.8077 58.9259C30.6178 60.0933 32.6367 60.9414 34.7725 61.4083L35.8139 64.3653L35.739 67.6238C33.952 68.4382 32.6861 70.1426 32.6162 72.1284C32.5183 74.9339 34.8427 77.2372 37.8089 77.2717C40.7737 77.3064 43.2575 75.0618 43.3554 72.2563C43.4289 70.1567 42.1466 68.3394 40.2528 67.5432L40.3242 64.4698L41.3765 61.8682C41.4455 61.6981 41.5972 61.5761 41.7774 61.5442L41.7801 61.5437C45.1405 60.9479 48.1209 59.4551 50.52 57.3554C50.6521 57.2412 50.8315 57.1968 51.0003 57.2423L53.4871 57.8998L56.6846 60.3265C56.7079 61.3957 57.2002 62.446 58.1189 63.1426C59.7787 64.401 62.1702 64.0161 63.3422 62.2556C64.3695 60.7108 64.0446 58.5952 62.6023 57.4282C61.6689 56.6727 60.4834 56.458 59.4112 56.732L56.2137 54.3054L54.9268 52.1158C54.837 51.964 54.8319 51.7776 54.9086 51.6187C55.7093 49.9785 56.2665 48.211 56.5412 46.3706C56.6178 45.8651 56.9314 45.4266 57.3922 45.2037L59.4654 44.2058L62.3444 43.9539C63.3948 45.8346 65.3994 47.0431 67.5687 46.8792C70.5516 46.6536 72.7181 43.9201 72.4064 40.775Z" fill="#2F80ED"/>
<path d="M36.273 30.4852C43.5707 29.1912 50.5356 34.0582 51.8296 41.3559C53.1235 48.6536 48.2566 55.6185 40.9589 56.9125C33.6612 58.2064 26.6963 53.3395 25.4023 46.0418C24.1083 38.7441 28.9753 31.7792 36.273 30.4852Z" fill="#2D9CDB"/>
<path d="M29.4298 45.3276C30.6024 51.9408 36.4316 56.5577 42.9456 56.403C42.3068 56.6198 41.6435 56.7911 40.9589 56.9125C33.661 58.2065 26.6963 53.3396 25.4023 46.0418C24.1083 38.7439 28.9751 31.7792 36.273 30.4852C36.9576 30.3638 37.6393 30.2966 38.3137 30.2806C32.1438 32.375 28.2572 38.7146 29.4298 45.3276Z" fill="#56CCF2"/>
<path d="M20.6427 71.6633C22.7209 71.2948 24.7043 72.6808 25.0728 74.759C25.4413 76.8372 24.0553 78.8206 21.9771 79.1891C19.8989 79.5576 17.9155 78.1716 17.547 76.0934C17.1785 74.0152 18.5645 72.0318 20.6427 71.6633Z" fill="#2F80ED"/>
<path d="M11.0458 23.5225C12.4185 23.2791 13.7285 24.1946 13.9719 25.5673C14.2153 26.9399 13.2998 28.25 11.9272 28.4934C10.5545 28.7368 9.24447 27.8213 9.00108 26.4487C8.75768 25.076 9.67314 23.7659 11.0458 23.5225Z" fill="#2F80ED"/>
<path d="M55.7473 10.1728C57.7691 9.81433 59.6987 11.1627 60.0572 13.1846C60.4157 15.2064 59.0673 17.136 57.0455 17.4945C55.0237 17.853 53.094 16.5046 52.7355 14.4828C52.377 12.461 53.7254 10.5313 55.7473 10.1728Z" fill="#2F80ED"/>
<path d="M34.601 44.649C36.486 44.3147 38.285 45.5719 38.6192 47.4568C38.9534 49.3418 37.6963 51.1408 35.8113 51.475C33.9264 51.8093 32.1274 50.5521 31.7931 48.6672C31.4589 46.7822 32.716 44.9832 34.601 44.649Z" fill="#2F80ED"/>
<path d="M35.6543 34.652C36.9373 34.4245 38.1618 35.2801 38.3893 36.5631C38.6168 37.8462 37.7611 39.0707 36.4781 39.2982C35.1951 39.5256 33.9706 38.67 33.7431 37.387C33.5156 36.104 34.3713 34.8795 35.6543 34.652Z" fill="#2F80ED"/>
<path d="M44.2485 40.688C45.3258 40.497 46.3541 41.2155 46.5451 42.2928C46.7361 43.3702 46.0176 44.3985 44.9402 44.5895C43.8629 44.7805 42.8346 44.062 42.6436 42.9846C42.4526 41.9073 43.1711 40.879 44.2485 40.688Z" fill="#2F80ED"/>
</svg>
