<?xml version="1.0" encoding="UTF-8"?>
<svg width="89px" height="100px" viewBox="0 0 89 100" version="1.1" xmlns="http://www.w3.org/2000/svg" xmlns:xlink="http://www.w3.org/1999/xlink">
    <!-- Generator: Sketch 48.1 (47250) - http://www.bohemiancoding.com/sketch -->
    <title>NWC logo</title>
    <desc>Created with Sketch.</desc>
    <defs></defs>
    <g id="KG_UI_about-khabar-garau" stroke="none" stroke-width="1" fill="none" fill-rule="evenodd" transform="translate(-120.000000, -20.000000)">
        <g id="NWC-logo" transform="translate(120.000000, 20.000000)">
            <path d="M6.98131038,40.8821306 C6.18376118,40.3460481 5.38827818,39.9752577 4.80940072,39.390378 C3.51940966,38.085567 2.32721825,36.6824742 1.11402057,35.3030928 C-0.0967665474,33.9261168 -0.319226297,32.4762887 0.43940966,30.714433 C6.20855546,17.3171821 16.2516145,8.12989691 29.0544141,1.65257732 C33.2291503,-0.4604811 33.2639311,-0.413402062 36.443797,3.05498282 C37.2585644,3.94398625 38.0826297,4.8257732 38.8591726,5.74707904 C39.8960555,6.97766323 39.9425447,8.26426117 38.8257692,9.46116838 C36.8677102,11.5601375 34.9144723,13.6680412 32.8668784,15.6783505 C31.3960957,17.1223368 29.7775805,16.9223368 28.4497093,15.3168385 C26.8577102,13.3927835 26.1775894,13.1501718 24.229517,14.7786942 C20.8974419,17.5646048 17.6287299,20.4546392 14.5948748,23.556701 C12.5459034,25.6505155 12.7893694,26.8721649 14.7756664,29.0116838 C16.2161449,30.5632302 16.2457603,32.5735395 14.7625805,34.0780069 C12.8685733,35.9989691 10.943229,37.8917526 8.97311717,39.7333333 C8.45794723,40.214433 7.72513864,40.4639175 6.98131038,40.8821306" id="Fill-1" fill="#DC3A4B"></path>
            <path d="M5.56459302,47.2580756 C6.5253712,47.2580756 7.19206172,47.2580756 7.94243292,47.2580756 C8.24237478,49.6484536 8.43797406,52.0357388 8.85396691,54.3845361 C11.7721154,70.8542955 25.6190295,83.8402062 42.2938685,85.8024055 C63.7915385,88.332646 82.9767979,73.3962199 85.7616771,51.962543 C88.4208631,31.485567 73.4599284,11.8058419 53.0287567,8.93058419 C51.5521199,8.72268041 50.057576,8.60721649 48.5664758,8.53608247 C47.5175403,8.4862543 46.8009168,8.32027491 46.8632469,6.99484536 C46.9286762,5.57628866 47.9035733,5.82646048 48.7066324,5.87869416 C63.4723122,6.84914089 75.0054383,13.4536082 82.6851208,26.0890034 C97.8302907,51.0068729 82.5528846,83.5371134 53.670653,88.1955326 C30.6440027,91.9085911 8.82986136,75.64811 5.97645349,52.6237113 C5.76088104,50.8831615 5.70371646,49.1216495 5.56459302,47.2580756" id="Fill-3" fill="#DC3A4B"></path>
            <path d="M26.7760957,51.2718213 C26.3415072,50.7886598 25.7764043,50.5367698 25.0807871,50.5154639 C23.4726029,50.4735395 22.6254651,51.5347079 22.5383408,53.6979381 C22.5166458,54.3285223 22.7001923,54.9164948 23.0882916,55.4628866 C23.5194365,56.0721649 24.0476923,56.3762887 24.6734034,56.3762887 C25.2340295,56.3762887 25.773305,56.1137457 26.2908855,55.5883162 L26.2908855,58.1092784 C25.9237925,58.4041237 25.1045483,58.5501718 23.8324642,58.5501718 C20.252102,58.5501718 18.5058274,56.8910653 18.5919186,53.5718213 C18.6349642,51.8075601 19.3247272,50.4635739 20.6622406,49.5388316 C21.8265385,48.7195876 23.3579293,48.3209622 25.2553801,48.3415808 C28.5981306,48.3628866 30.4849061,49.6127148 30.9167397,52.0910653 L30.9167397,64.0329897 L26.7760957,64.0329897 L26.7760957,51.2718213" id="Fill-5" fill="#0074B0"></path>
            <path d="M40.9443023,51.2718213 C40.5097138,50.7886598 39.9449553,50.5367698 39.2489937,50.5154639 C37.6408095,50.4735395 36.7936717,51.5347079 36.7065474,53.6979381 C36.6851968,54.3285223 36.8683989,54.9164948 37.2568426,55.4628866 C37.6879875,56.0721649 38.2158989,56.3762887 38.8419544,56.3762887 C39.4025805,56.3762887 39.941856,56.1137457 40.4594365,55.5883162 L40.4594365,58.1092784 C40.0919991,58.4041237 39.2730993,58.5501718 38.0006708,58.5501718 C34.420653,58.5501718 32.674034,56.8910653 32.7601252,53.5718213 C32.8031708,51.8075601 33.4929338,50.4635739 34.8304472,49.5388316 C35.9950894,48.7195876 37.526136,48.3209622 39.4239311,48.3415808 C42.7666816,48.3628866 44.6534571,49.6127148 45.0849463,52.0910653 L45.0849463,64.0329897 L40.9443023,64.0329897 L40.9443023,51.2718213" id="Fill-6" fill="#0074B0"></path>
            <path d="M53.3335197,56.4395189 C51.866525,56.3979381 51.1340608,57.4474227 51.1340608,59.5900344 C51.1340608,60.8505155 51.8565385,61.533677 53.3011494,61.638488 C54.7457603,61.4914089 55.4689267,60.7872852 55.4689267,59.5274914 C55.4689267,58.5611684 55.3604517,57.857732 55.1452236,57.4161512 C54.8218649,56.7859107 54.2178488,56.4608247 53.3335197,56.4395189 Z M53.4302862,53.9501718 C53.6031574,54.0130584 53.7966905,54.0446735 54.0126073,54.0446735 C54.9833721,54.0446735 55.5112835,53.3309278 55.5980635,51.9020619 C55.6187254,51.3769759 55.4895886,50.9780069 55.2099642,50.7044674 C54.9293068,50.4319588 54.5191682,50.3268041 53.9805814,50.3896907 L54.3683363,48.1838488 C57.6466905,48.037457 59.2858676,49.266323 59.2858676,51.8704467 C59.2858676,54.2446735 58.2613819,55.3996564 56.2127549,55.3367698 C57.1831753,55.5051546 58.02928,55.9460481 58.7517576,56.6601375 C59.4742352,57.3742268 59.8351297,58.1931271 59.8351297,59.1175258 C59.8137791,61.0082474 59.1990877,62.342268 57.9917442,63.1189003 C57.0213238,63.7285223 55.501297,64.0329897 53.4302862,64.0329897 C51.3816592,64.0329897 49.8506127,63.7285223 48.8371467,63.1189003 C47.5643739,62.342268 46.9173122,61.0082474 46.8959615,59.1175258 C46.8959615,58.1931271 47.2572004,57.3742268 47.9793336,56.6601375 C48.7018113,55.9460481 49.5486047,55.5051546 50.5193694,55.3367698 C48.4700537,55.3996564 47.4459123,54.2446735 47.4459123,51.8704467 C47.4459123,49.266323 49.0847451,48.037457 52.3627549,48.1838488 L52.8483095,50.3896907 C51.7697585,50.3690722 51.1984571,50.8728522 51.1340608,51.9020619 C51.0472809,53.3309278 51.5865564,54.0446735 52.7508542,54.0446735 C52.988466,54.0446735 53.2150581,54.0130584 53.4302862,53.9501718 Z" id="Fill-7" fill="#0074B0"></path>
            <path d="M69.7659258,57.132646 C68.903636,57.8261168 67.8788059,58.1725086 66.6931574,58.1725086 C65.3997227,58.1725086 64.2671064,57.7945017 63.2963417,57.0381443 C62.2398301,56.2402062 61.7119186,55.2319588 61.7119186,54.0130584 L61.7119186,48.2786942 L65.9489848,48.2786942 L65.9489848,53.2570447 C65.9489848,54.8749141 66.6931574,55.6831615 68.1815027,55.6831615 C68.9577013,55.6831615 69.4856127,55.4419244 69.7659258,54.9587629 L69.7659258,48.2786942 L74.0684213,48.2786942 L74.0684213,57.9831615 C74.0684213,59.1804124 73.3676386,60.1786942 71.9660733,60.9766323 C70.7366905,61.6697595 69.4639177,62.0161512 68.1491324,62.0161512 C69.0758184,62.6257732 70.0359079,62.9302405 71.0276789,62.9302405 C71.7825268,62.9302405 72.6131351,62.7725086 73.5191592,62.4570447 L71.4481485,66.0178694 C69.852017,65.8924399 68.5048614,65.5453608 67.4053041,64.9780069 C67.0378667,64.7890034 66.1965832,64.2109966 64.8817979,63.2450172 C63.8466369,62.4886598 62.7901252,61.9329897 61.7119186,61.5752577 L61.7119186,58.4247423 C63.0704383,59.7061856 64.5143605,60.3463918 66.0460957,60.3463918 C66.9087299,60.3463918 67.6959481,60.157732 68.4074061,59.7790378 C69.2703846,59.3381443 69.7228801,58.7395189 69.7659258,57.9831615 C69.7876208,57.6474227 69.7876208,57.3642612 69.7659258,57.132646" id="Fill-8" fill="#0074B0"></path>
            <path d="M29.1969812,39.8268041 C28.674924,40.1051546 28.1294499,40.2446735 27.560559,40.2446735 C26.8422138,40.2446735 26.2492174,40.0570447 25.7819141,39.6814433 C25.2870617,39.2938144 25.0398077,38.7817869 25.0398077,38.1457045 C25.0398077,37.4979381 25.2942934,36.9797251 25.8022317,36.5920962 C26.2764222,36.2226804 26.8828488,36.0381443 27.6215116,36.0381443 C27.9397048,36.0381443 28.319195,36.1044674 28.7596377,36.2378007 L29.1356843,37.5189003 C28.3952996,37.3371134 27.9300626,37.2460481 27.7396288,37.2460481 C27.0130188,37.2460481 26.6497138,37.5340206 26.6497138,38.109622 C26.6497138,38.7092784 26.9995886,39.0089347 27.6989937,39.0089347 C27.9503801,39.0089347 28.238958,38.9333333 28.5650716,38.7817869 C28.9180456,38.6182131 29.128797,38.4426117 29.1969812,38.2549828 L29.1969812,35.3017182 L24.0315072,35.3017182 L24.0315072,37.4371134 C24.0315072,38.5274914 23.2907782,39.0728522 21.8103533,39.0728522 C22.6254651,40.7261168 23.8851521,41.552921 25.5901029,41.552921 C26.0791011,41.552921 26.7209973,41.4257732 27.5157916,41.1714777 C28.3646512,40.8989691 28.9252773,40.6171821 29.1969812,40.3264605 L29.1969812,39.8268041 Z M30.8674955,35.3017182 L30.8674955,43.3154639 L29.1969812,43.3154639 L29.1969812,41.7893471 C27.9063014,42.4556701 26.6838059,42.7886598 25.5288059,42.7886598 C24.4898569,42.7886598 23.5425089,42.5584192 22.6867621,42.0979381 C21.7969231,41.6257732 21.1378086,40.9776632 20.7101073,40.1536082 C20.3633318,39.4876289 19.9153131,38.4910653 19.3653623,37.1646048 L20.7507424,36.5195876 L21.2194231,37.709622 C21.3823077,37.8247423 21.593059,37.8824742 21.8513327,37.8824742 C22.217737,37.8824742 22.4012835,37.7278351 22.4012835,37.4189003 L22.4012835,35.3017182 L18.4889535,35.3017182 L18.4889535,34.1116838 L32.2329025,34.1116838 L32.2329025,35.3017182 L30.8674955,35.3017182 Z" id="Fill-9" fill="#0074B0"></path>
            <path d="M34.4946914,38.4639175 C34.4605993,38.5852234 34.4437254,38.7061856 34.4437254,38.8274914 C34.4437254,39.2632302 34.5949016,39.6206186 34.8969097,39.8993127 C35.1992621,40.1780069 35.5949374,40.3175258 36.08428,40.3175258 C36.3893873,40.3175258 36.7020707,40.2202749 37.021297,40.0264605 L34.4946914,38.4639175 Z M37.8057603,39.1848797 L37.8057603,35.3017182 L31.6216547,35.3017182 L31.6216547,34.1116838 L40.8217084,34.1116838 L40.8217084,35.3017182 L39.4459705,35.3017182 L39.4459705,43.3154639 L37.8057603,43.3154639 L37.8057603,41.062543 C37.2826699,41.371134 36.6752102,41.5257732 35.9823479,41.5257732 C35.0990519,41.5257732 34.3624553,41.2804124 33.7711807,40.7900344 C33.1599329,40.2872852 32.8544812,39.6450172 32.8544812,38.8635739 C32.8544812,38.0883162 33.1344499,37.4477663 33.6947317,36.9415808 C34.2550134,36.4364261 34.969915,36.1831615 35.8394365,36.1831615 C36.2537075,36.1831615 36.7358184,36.2621993 37.2861136,36.4195876 L37.6225581,37.8367698 C36.894915,37.5642612 36.3477191,37.4278351 35.9809705,37.4278351 C35.7499016,37.4278351 35.5222764,37.4893471 35.2980948,37.6116838 L37.8057603,39.1848797 Z" id="Fill-10" fill="#0074B0"></path>
            <path d="M44.3366413,39.1632302 C45.1989311,40.2597938 46.2416682,41.3745704 47.4641637,42.5072165 L46.2723166,43.4247423 C44.9682066,42.2072165 43.8917218,41.0683849 43.0425179,40.0082474 C42.3837478,39.1848797 41.7081038,38.2092784 41.0148971,37.0828179 L42.2752728,36.2738832 L43.2308855,37.7460481 C43.2443157,37.7762887 43.3727639,37.8247423 43.6169186,37.8914089 C43.860729,37.9580756 44.0163819,37.9914089 44.0842218,37.9914089 C44.7822496,37.9914089 45.1310912,37.7130584 45.1310912,37.1556701 L45.1310912,35.3017182 L40.2101163,35.3017182 L40.2101163,34.1116838 L48.3305859,34.1116838 L48.3305859,35.3017182 L46.740653,35.3017182 L46.740653,37.2556701 C46.740653,38.0487973 46.3436002,38.6030928 45.5488059,38.9178694 C45.1479651,39.0756014 44.744025,39.157732 44.3366413,39.1632302" id="Fill-11" fill="#0074B0"></path>
            <path d="M61.3902818,35.3017182 L61.3902818,43.3154639 L59.7397406,43.3154639 L59.7397406,35.3017182 L57.3150671,35.3017182 L57.3150671,39.4814433 C57.3150671,40.1113402 57.06678,40.4264605 56.5712388,40.4264605 C56.1091011,40.4264605 55.571203,40.132646 54.9561673,39.5450172 C54.3414758,38.957732 54.0343023,38.4546392 54.0343023,38.0367698 C54.0343023,37.6553265 54.3025626,37.4642612 54.8394275,37.4642612 L55.6848435,37.4642612 L55.6848435,35.3017182 L52.5876252,35.3017182 L52.5876252,34.1116838 L62.7760063,34.1116838 L62.7760063,35.3017182 L61.3902818,35.3017182" id="Fill-12" fill="#0074B0"></path>
            <path d="M66.2909392,39.1632302 C67.1528846,40.2597938 68.1956216,41.3745704 69.4184615,42.5072165 L68.2266145,43.4247423 C66.9225045,42.2072165 65.8456753,41.0683849 64.9968157,40.0082474 C64.3377013,39.1848797 63.6624016,38.2092784 62.9688506,37.0828179 L64.2292263,36.2738832 L65.1851834,37.7460481 C65.1986136,37.7762887 65.3270617,37.8247423 65.5712165,37.8914089 C65.8146825,37.9580756 65.9706798,37.9914089 66.0385197,37.9914089 C66.736203,37.9914089 67.0850447,37.7130584 67.0850447,37.1556701 L67.0850447,35.3017182 L62.1644141,35.3017182 L62.1644141,34.1116838 L70.2845394,34.1116838 L70.2845394,35.3017182 L68.6946064,35.3017182 L68.6946064,37.2556701 C68.6946064,38.0487973 68.297898,38.6030928 67.5027594,38.9178694 C67.1019186,39.0756014 66.6983229,39.157732 66.2909392,39.1632302" id="Fill-13" fill="#0074B0"></path>
            <polyline id="Fill-14" fill="#0074B0" points="72.994347 35.3017182 72.994347 43.3154639 71.3541369 43.3154639 71.3541369 35.3017182 69.2758945 35.3017182 69.2758945 34.1116838 74.3697406 34.1116838 74.3697406 35.3017182 72.994347 35.3017182"></polyline>
            <path d="M71.5376834,34.4752577 L67.9001565,30.3408935 L69.3771377,29.6323024 L72.9030903,34.4752577 L71.5376834,34.4752577 Z M69.9381082,34.4752577 L65.7506306,32.0216495 L66.8915116,30.9312715 L71.2828533,34.4752577 L69.9381082,34.4752577 Z" id="Fill-15" fill="#0074B0"></path>
            <polygon id="Fill-16" fill="#0074B0" points="71.0690027 32.957732 73.0246512 32.957732 73.0246512 31.4766323 71.0690027 31.4766323"></polygon>
            <path d="M15.3480009,81.9364261 L14.7426073,81.3058419 L10.7672585,85.1051546 L10.8116816,83.4505155 L12.4584347,81.8762887 C12.3630456,81.8271478 12.2680009,81.7838488 12.1726118,81.7463918 C12.0768784,81.709622 11.9525626,81.6731959 11.8000089,81.638488 C11.6467665,81.6034364 11.4342934,81.5872852 11.1622451,81.590378 C11.0713327,81.5955326 10.9442621,81.6061856 10.7810331,81.6223368 L10.8443962,80.4752577 L11.3430367,80.4718213 C11.3430367,80.2725086 11.27072,80.0965636 11.1243649,79.9446735 C11.0716771,79.8896907 10.9859302,79.828866 10.8678131,79.7611684 C10.7483184,79.6934708 10.5947317,79.6824742 10.406364,79.7285223 C10.2173077,79.7749141 10.0478801,79.8694158 9.89842576,80.0123711 C9.72383274,80.1790378 9.63567531,80.3859107 9.63429785,80.6329897 L9.59297406,82.1969072 L9.0543873,82.2268041 L9.10707513,80.6814433 C9.11740608,80.3687285 9.13049195,80.0515464 9.1466771,79.7323024 C9.1869678,79.4013746 9.30405188,79.1436426 9.49724061,78.9587629 C9.52203488,78.9353952 9.577822,78.8934708 9.6642576,78.8340206 C9.92322004,78.6683849 10.1852818,78.5900344 10.4511315,78.5989691 C10.7166369,78.6079038 10.9917844,78.6986254 11.2762299,78.8704467 C11.4129428,78.9505155 11.5775492,79.1783505 11.7714267,79.5542955 C11.9646154,79.9298969 12.0327996,80.2501718 11.9759794,80.5147766 C12.1009839,80.524055 12.1874195,80.5350515 12.2345975,80.5484536 C12.3768202,80.5756014 12.5042352,80.624055 12.6161538,80.6917526 C12.7280725,80.7601375 12.8179517,80.8175258 12.8854472,80.8635739 C12.9529428,80.9103093 13.0163059,80.9635739 13.0748479,81.0247423 C13.13339,81.0852234 13.1771243,81.1309278 13.2063953,81.161512 L13.9357603,80.4649485 L10.9353086,77.3388316 L11.6364356,76.6690722 L16.0494723,81.266323 L15.3480009,81.9364261" id="Fill-17" fill="#0074B0"></path>
            <path d="M15.7040742,78.8333333 C15.567017,79.0573883 15.429271,79.2453608 15.2898032,79.3969072 C15.1913148,79.504811 15.1100447,79.5872852 15.0456485,79.6446735 C14.9815966,79.7024055 14.8727773,79.7835052 14.7195349,79.8876289 L14.4764132,79.6656357 C14.4189043,79.4532646 14.3458989,79.2487973 14.2560197,79.0525773 C14.1668292,78.856701 14.0545662,78.6542955 13.9192308,78.4453608 C13.7845841,78.2360825 13.6237657,78.0463918 13.4364311,77.8756014 C13.3427639,77.7900344 13.2490966,77.7044674 13.1557737,77.619244 C13.0507424,77.5584192 12.9736047,77.5116838 12.9243605,77.4776632 L13.7084794,76.2852234 C13.9701968,76.5243986 14.1785376,76.7731959 14.3321243,77.0302405 C14.4154606,77.175945 14.4836449,77.314433 14.5366771,77.4443299 C14.5566503,77.4972509 14.6193247,77.7474227 14.7253891,78.1945017 C14.8107916,78.5762887 14.8569365,78.9570447 14.8638238,79.3367698 C15.1561896,78.8680412 15.2746512,78.357732 15.2195528,77.8058419 C15.2033676,77.6852234 15.1827057,77.5676976 15.1579114,77.4508591 C15.1324284,77.3350515 15.0973032,77.2268041 15.0515027,77.1264605 L15.668949,76.3594502 C15.8197809,76.5319588 15.9306664,76.7120275 16.0002281,76.8979381 C16.0701342,77.0838488 16.1100805,77.3092784 16.1200671,77.5735395 C16.1272987,77.790378 16.0925179,77.9969072 16.0157245,78.1931271 C15.937898,78.3907216 15.8342442,78.6037801 15.7040742,78.8333333" id="Fill-18" fill="#0074B0"></path>
            <path d="M20.2803399,84.4773196 L20.0688998,84.2955326 C20.1939043,84.0735395 20.2648435,83.7587629 20.2810286,83.3522337 C20.3092665,82.8539519 20.2321288,82.45189 20.0485823,82.1467354 C19.9745438,82.0261168 19.8794991,81.8876289 19.7631038,81.7309278 C19.6473971,81.5742268 19.5413327,81.4549828 19.4452549,81.3721649 C19.2975224,81.2457045 19.1418694,81.1542955 18.9782961,81.0989691 C18.8143784,81.0429553 18.639441,81.0323024 18.454517,81.066323 C18.1011986,81.1268041 17.8091771,81.2900344 17.5781082,81.5573883 C17.4258989,81.7333333 17.3215564,81.9450172 17.2647361,82.1917526 L18.196932,82.9931271 L17.5633005,83.7271478 L16.794678,83.066323 L13.2019186,87.2285223 L13.1058408,85.7302405 L15.9967844,82.3810997 L15.3628086,81.8353952 L15.9964401,81.1013746 L16.6114758,81.6302405 C16.6338596,81.4106529 16.6958453,81.2089347 16.7991547,81.0247423 C16.9024642,80.8402062 17.0388327,80.6505155 17.2075716,80.4546392 C17.4104025,80.2199313 17.6738417,80.0828179 17.9978891,80.043299 C18.2444544,80.0161512 18.5581708,80.0474227 18.9390385,80.1360825 C19.0988238,80.1707904 19.267907,80.2652921 19.4480098,80.4195876 C19.6591055,80.6010309 19.8553936,80.832646 20.0368739,81.1134021 C20.2180098,81.3945017 20.36161,81.6945017 20.4666413,82.0116838 C20.6102415,82.4536082 20.6670617,82.8687285 20.6377907,83.2584192 C20.6081753,83.64811 20.489025,84.0542955 20.2803399,84.4773196" id="Fill-19" fill="#0074B0"></path>
            <path d="M20.8705814,88.1189003 L20.3013462,88.1728522 L20.1897719,87.6323024 L20.7311136,87.5745704 L20.8705814,88.1189003 Z M22.1585063,87.0841924 L20.9205143,86.2006873 L20.2651878,87.114433 L18.945237,86.1718213 C18.7871735,86.0587629 18.632898,85.9835052 18.4834436,85.9457045 C18.3339893,85.9079038 18.218627,85.9814433 18.1377013,86.167354 C18.1060197,86.2398625 18.1094633,86.3113402 18.1476878,86.3810997 C18.1862567,86.4505155 18.2468649,86.5147766 18.3295125,86.5738832 C18.3925313,86.6302405 18.4710465,86.680756 18.5636807,86.7257732 C18.8016369,86.8426117 18.9383497,86.9134021 18.9727862,86.9381443 C19.1311941,87.0508591 19.2506887,87.1556701 19.3329919,87.2508591 C19.4152952,87.3467354 19.4893336,87.471134 19.5561404,87.6250859 C19.6911315,87.9436426 19.6925089,88.2463918 19.5599284,88.5329897 C19.5365116,88.5800687 19.4944991,88.6453608 19.4345796,88.7298969 C19.2840921,88.9398625 19.0988238,89.0670103 18.8794633,89.1116838 C18.5502504,89.1941581 18.2306798,89.1250859 17.9214401,88.9037801 C17.6462925,88.7072165 17.4183229,88.438488 17.2371869,88.0972509 C17.1338775,87.9072165 17.0622496,87.7024055 17.0223032,87.4835052 C17.0130054,87.4237113 16.9844231,87.2017182 16.9372451,86.8189003 C16.889034,86.3931271 16.8783587,86.067354 16.9048748,85.8426117 L17.1139043,85.8333333 C17.0946199,85.9037801 17.0911762,86.0604811 17.1046064,86.3027491 C17.1176923,86.5453608 17.150407,86.7721649 17.201373,86.9838488 C17.252339,87.1948454 17.3139803,87.3766323 17.3869857,87.5292096 C17.4593023,87.6821306 17.5663998,87.8189003 17.7072451,87.9412371 C17.8863148,88.0687285 18.0278488,88.161512 18.1315027,88.2195876 C18.2351565,88.2780069 18.3587835,88.3158076 18.5023837,88.333677 C18.6948837,88.3549828 18.8181664,88.3635739 18.8729204,88.3597938 C19.0110107,88.342268 19.1146646,88.2841924 19.184915,88.1859107 C19.2400134,88.1089347 19.2758274,88.033677 19.2920125,87.9601375 C19.3078533,87.8872852 19.2951118,87.814433 19.2534436,87.7426117 C19.2427683,87.7137457 19.2138417,87.6824742 19.1652862,87.6477663 C19.1243068,87.6185567 19.053712,87.5893471 18.9548792,87.5608247 C18.8557021,87.5323024 18.7899284,87.5120275 18.7575581,87.4993127 C18.5877862,87.4312715 18.4242129,87.3621993 18.2668381,87.2920962 C18.2255143,87.2621993 18.175237,87.2158076 18.1163506,87.152921 C18.058153,87.0900344 18.0140742,87.0316151 17.9844589,86.9790378 C17.9544991,86.9261168 17.9403801,86.8628866 17.9414132,86.7893471 L17.9396914,85.6604811 C17.9359034,85.5202749 17.9699955,85.4013746 18.0399016,85.3030928 C18.0698614,85.2611684 18.1104964,85.2264605 18.1611181,85.1989691 C18.2844007,85.1281787 18.4049284,85.1161512 18.5220125,85.1628866 C18.639441,85.2092784 18.7465385,85.267354 18.8429606,85.3360825 C18.904602,85.3800687 18.9524687,85.4147766 18.9869052,85.4391753 L20.0286091,86.1831615 L20.3226968,85.7731959 L17.4858184,83.7477663 L18.0512657,82.9601375 L22.7232648,86.2965636 L22.1585063,87.0841924 Z M18.5626476,89.119244 L16.8298032,91.5357388 L16.7247719,90.9206186 L18.0960331,89.0089347 L18.5626476,89.119244 Z M17.3986941,88.3718213 L16.4420483,89.7058419 C16.3866055,89.7828179 16.3466592,89.8388316 16.3215206,89.8738832 C16.2361181,89.9927835 16.1593247,90.0285223 16.0914848,89.9797251 C16.017102,89.9264605 15.985076,89.8556701 15.9964401,89.7690722 L15.9923077,88.7649485 C15.9902415,88.7109966 15.9957513,88.6484536 16.0095259,88.5786942 C16.0233005,88.5099656 16.0474061,88.4656357 16.0811538,88.4477663 C16.1248882,88.4154639 16.181364,88.4237113 16.250237,88.4728522 L16.6421243,88.7525773 L17.1772674,88.0068729 L17.3986941,88.3718213 Z" id="Fill-20" fill="#0074B0"></path>
            <path d="M23.492576,90.1563574 L23.5955411,89.9621993 C23.5741905,89.9123711 23.5149597,89.847079 23.4192263,89.7670103 C23.3231485,89.6869416 23.2260376,89.6209622 23.129271,89.5701031 C22.8747853,89.4357388 22.6605903,89.371134 22.485653,89.375945 C22.3603041,89.3780069 22.2390877,89.4041237 22.1216592,89.4542955 C22.0038864,89.5037801 21.9212388,89.5749141 21.8726834,89.666323 C21.8361807,89.7343643 21.821373,89.8123711 21.8282603,89.8986254 C21.8351476,89.9848797 21.8985107,90.0597938 22.0180054,90.1230241 C22.0999642,90.1659794 22.1836449,90.1931271 22.268703,90.2041237 C22.3537612,90.2151203 22.4915072,90.2268041 22.6805635,90.2391753 C22.8699642,90.2515464 22.983949,90.2584192 23.0225179,90.2587629 C23.1705948,90.2491409 23.3269365,90.2151203 23.492576,90.1563574 Z M28.2661628,90.3542955 L25.598712,88.9450172 L25.0473837,89.9838488 C25.344915,89.9463918 25.6055993,89.9865979 25.8301252,90.1051546 C25.8821243,90.1329897 25.9413551,90.1738832 26.0081619,90.2285223 C26.0753131,90.2831615 26.1465966,90.3505155 26.2240787,90.4302405 C26.3015608,90.5099656 26.3673345,90.6154639 26.4220886,90.747079 C26.4771869,90.8780069 26.5150671,91.0859107 26.5367621,91.3697595 C26.5742979,91.857732 26.4802862,92.314433 26.2540385,92.7408935 C26.1045841,93.0223368 25.9482424,93.2539519 25.7850134,93.4357388 C25.6214401,93.6178694 25.4086225,93.7848797 25.1455277,93.9381443 L24.7601834,92.7701031 L25.4003578,92.3484536 C25.6331485,92.1982818 25.8056753,92.0168385 25.9189714,91.8037801 C26.0198703,91.6137457 26.0195259,91.4429553 25.9182826,91.2914089 C25.8742039,91.2298969 25.8149732,91.1790378 25.7405903,91.1391753 C25.6730948,91.1037801 25.6090429,91.0793814 25.5487791,91.067354 C25.3707424,91.0608247 25.2422943,91.0512027 25.1624016,91.038488 C24.8931082,91.0230241 24.643788,91.0707904 24.4123748,91.1821306 L22.9836047,93.8742268 L22.5042487,92.2635739 L23.0483453,91.2371134 C22.867898,91.2883162 22.6695438,91.2927835 22.4522496,91.2512027 C22.2349553,91.209622 22.0445215,91.1453608 21.879915,91.0584192 C21.7752281,91.0034364 21.6956798,90.9467354 21.6405814,90.8879725 C21.4859615,90.7285223 21.3805859,90.4487973 21.3251431,90.0487973 C21.2593694,89.5955326 21.3031038,89.224055 21.4573792,88.9350515 C21.5940921,88.675945 21.7945125,88.4972509 22.0582961,88.3975945 C22.3210465,88.2975945 22.6075581,88.2810997 22.9171422,88.347079 C22.9994454,88.371134 23.0638417,88.395189 23.1086091,88.4185567 C23.3100626,88.5254296 23.5184034,88.7281787 23.7332871,89.0264605 C23.8062925,89.1233677 23.8930725,89.2666667 23.9929383,89.4563574 L24.5563193,88.3945017 L22.0679383,87.0800687 L22.5221556,86.2237113 L28.7207245,89.4982818 L28.2661628,90.3542955 Z" id="Fill-21" fill="#0074B0"></path>
            <path d="M36.6380188,91.8986254 L36.3721691,91.8123711 C36.4017844,91.5594502 36.3453086,91.2419244 36.2034302,90.8608247 C36.0367576,90.3900344 35.8098211,90.0484536 35.5233095,89.8378007 C35.4079472,89.7553265 35.2667576,89.6639175 35.0993962,89.5642612 C34.9320349,89.4642612 34.7880903,89.395189 34.6668739,89.3556701 C34.4822943,89.295189 34.3032245,89.2714777 34.1303533,89.2828179 C33.9578265,89.2948454 33.7925313,89.35189 33.6344678,89.4546392 C33.331771,89.6463918 33.1254964,89.909622 33.0159884,90.2453608 C32.9436717,90.4659794 32.9292084,90.7017182 32.9719097,90.9508591 L34.1420617,91.3316151 L33.8414311,92.252921 L32.8761762,91.9391753 L31.1705367,97.1621993 L30.5028131,95.8168385 L31.8757961,91.6134021 L31.0796243,91.3549828 L31.3805993,90.4340206 L32.1523211,90.6845361 C32.0879249,90.4731959 32.067263,90.262543 32.0913685,90.0532646 C32.1154741,89.8436426 32.1674732,89.6164948 32.2480546,89.3704467 C32.3444767,89.0756014 32.5342218,88.8477663 32.8183229,88.6865979 C33.0352728,88.5666667 33.3365921,88.4745704 33.7222809,88.409622 C33.8830993,88.380756 34.0755993,88.4020619 34.3011583,88.4756014 C34.5663193,88.5621993 34.8366458,88.7 35.1128265,88.8893471 C35.3890072,89.0786942 35.6369499,89.3 35.8569991,89.5522337 C36.1596959,89.9044674 36.3728578,90.2659794 36.4961404,90.6367698 C36.6197674,91.0075601 36.6672898,91.4281787 36.6380188,91.8986254" id="Fill-22" fill="#0074B0"></path>
            <path d="M38.0685107,93.2594502 L37.1190966,93.0298969 L36.698627,94.7628866 L34.7143962,94.2841924 C34.6159079,94.2601375 34.5150089,94.2735395 34.4113551,94.3237113 C34.3073569,94.3742268 34.2446825,94.4453608 34.2226431,94.5371134 C34.2002594,94.6295533 34.2181664,94.7247423 34.2770528,94.8230241 C34.3359392,94.9213058 34.4106664,94.9635739 34.50089,94.9498282 C34.689602,94.9247423 34.8524866,94.9065292 34.9902326,94.8955326 C35.1279785,94.8841924 35.2584928,94.8938144 35.3814311,94.9233677 C35.4224106,94.9333333 35.4905948,94.9587629 35.5849508,94.9993127 C35.9527326,95.1676976 36.2240921,95.432646 36.3969633,95.7931271 C36.5705233,96.1539519 36.6087478,96.5353952 36.5112925,96.9371134 C36.4524061,97.1800687 36.3284347,97.3958763 36.139034,97.5848797 C35.9499776,97.7742268 35.7585107,97.9075601 35.5656664,97.9845361 L35.1104159,97.1707904 C35.3208229,97.1151203 35.4792308,97.0646048 35.5846064,97.0195876 C35.91072,96.8766323 36.0970215,96.7089347 36.1435107,96.5164948 C36.1576297,96.457732 36.1586628,96.4 36.1462657,96.3443299 C36.1214714,96.1965636 36.0591413,96.0797251 35.9589311,95.9931271 C35.8590653,95.9072165 35.7309615,95.8453608 35.5759973,95.8075601 C35.4447943,95.7756014 35.3263327,95.7652921 35.219924,95.7749141 C34.8466324,95.8182131 34.5511673,95.8931271 34.3349061,96.0010309 C34.0590698,96.138488 33.8562388,96.3512027 33.7260689,96.6391753 C33.7098837,96.6707904 33.6943873,96.7158076 33.6802683,96.7745704 C33.611051,97.0597938 33.7322674,97.3773196 34.0425403,97.7274914 C34.1730546,97.8656357 34.3937925,98.0560137 34.7044097,98.2996564 L36.2199597,99.5474227 L36.1080411,100 L34.4743739,98.7182131 C34.0738775,98.4439863 33.6998971,98.0436426 33.3524329,97.5175258 C33.0562791,97.0646048 32.9478041,96.6752577 33.0266637,96.3484536 C33.0993247,96.0474227 33.2108989,95.7948454 33.3603533,95.5917526 C33.509119,95.3886598 33.712983,95.2206186 33.9712567,95.0883162 C33.9199463,95.0491409 33.843153,94.8979381 33.742254,94.6340206 C33.6200045,94.3120275 33.5835018,94.0512027 33.6324016,93.8501718 C33.6527191,93.7666667 33.6747585,93.7099656 33.6995528,93.6800687 C33.8097496,93.5123711 33.9437075,93.3896907 34.101771,93.3123711 C34.2594902,93.2350515 34.4292621,93.2182131 34.610398,93.2621993 L36.0891011,93.6189003 L36.2809123,92.8278351 L33.8032066,92.2298969 L34.0225671,91.3257732 L38.2871825,92.3553265 L38.0685107,93.2594502" id="Fill-23" fill="#0074B0"></path>
            <polyline id="Fill-24" fill="#0074B0" points="37.9004606 90.8948454 37.1769499 91.4264605 36.6975939 90.7020619 37.4131843 90.2085911 37.9004606 90.8948454"></polyline>
            <path d="M41.6860644,94.7254296 L41.8021154,93.8024055 L40.1278131,93.5931271 C40.138144,93.7158076 40.1450313,93.8292096 40.1488193,93.9340206 C40.1526073,94.0388316 40.1443426,94.1718213 40.1247138,94.3343643 C40.0975089,94.5484536 40.0754696,94.6883162 40.0585957,94.7560137 C40.0086628,94.8797251 39.9700939,94.9835052 39.9425447,95.0670103 C40.101297,95.295189 40.3148032,95.4261168 40.5837522,95.4597938 C40.6426386,95.4666667 40.6884392,95.4687285 40.7235644,95.4639175 C41.3086404,95.4161512 41.6299329,95.1701031 41.6860644,94.7254296 Z M43.9537075,94.0718213 L42.8837657,93.9381443 L42.1981351,99.3886598 L41.2614624,98.0979381 L41.5280009,95.9814433 C41.2428667,96.2151203 40.886449,96.304811 40.4584034,96.2512027 C40.1140385,96.2079038 39.8344141,96.0298969 39.618153,95.7164948 C39.5272406,95.8962199 39.3819186,96.0687285 39.1821869,96.2343643 C39.1057379,96.3030928 39.0079383,96.3649485 38.8908542,96.4195876 L40.3158363,98.6030928 L39.9229159,99.075945 L38.7148837,97.4360825 C38.4307826,97.0453608 38.2041905,96.637457 38.0354517,96.2130584 C37.8667129,95.7890034 37.7999061,95.4395189 37.8336538,95.166323 C37.8649911,94.919244 37.9249106,94.7487973 38.0134123,94.6560137 C38.1015698,94.562543 38.2362165,94.5061856 38.4180411,94.485567 C38.4786494,94.4752577 38.5654293,94.4993127 38.6773479,94.5570447 C38.7896109,94.6147766 38.8846556,94.6350515 38.9638596,94.6189003 C39.0768113,94.5986254 39.1604919,94.5436426 39.2145572,94.4549828 C39.2679338,94.366323 39.3040921,94.2491409 39.3226878,94.1037801 C39.3743426,93.8938144 39.3323301,93.6845361 39.1969946,93.4762887 L37.8887522,93.3123711 L38.0089356,92.3508591 L44.0742352,93.1106529 L43.9537075,94.0718213 Z" id="Fill-25" fill="#0074B0"></path>
            <polyline id="Fill-26" fill="#0074B0" points="46.7148256 94.0694158 45.7388953 94.0415808 45.5797987 99.5323024 44.5625447 98.2872852 44.6868605 94.0109966 43.9006753 93.9879725 43.9289132 93.0199313 46.7427191 93.1010309 46.7148256 94.0694158"></polyline>
            <path d="M55.0188417,92.2474227 L54.7409392,92.2742268 C54.6665564,92.0309278 54.4871422,91.7628866 54.2037299,91.4697595 C53.8628086,91.1051546 53.5177549,90.8828179 53.1706351,90.8044674 C53.0322004,90.7745704 52.8655277,90.7474227 52.672339,90.7226804 C52.4784615,90.6982818 52.3183318,90.6920962 52.1922943,90.7044674 C51.9987612,90.7230241 51.8252013,90.7725086 51.6716145,90.8522337 C51.5183721,90.9319588 51.3892352,91.0505155 51.2859258,91.2075601 C51.085161,91.5044674 51.0021691,91.8278351 51.0366055,92.1797251 C51.0589893,92.4106529 51.139915,92.632646 51.2797272,92.8436426 L52.5042889,92.7250859 L52.5979562,93.6896907 L51.5882782,93.7869416 L52.1210107,99.2546392 L50.96911,98.2886598 L50.5403757,93.8886598 L49.7077013,93.9697595 L49.6136896,93.0054983 L50.4212254,92.9271478 C50.2776252,92.7591065 50.1746601,92.5745704 50.1123301,92.3728522 C50.0503444,92.171134 50.0069544,91.9415808 49.9818157,91.6845361 C49.9515116,91.3762887 50.0341592,91.0914089 50.2297585,90.8298969 C50.380246,90.6340206 50.6195796,90.428866 50.9470707,90.2154639 C51.0820617,90.1243986 51.2683631,90.0670103 51.5035644,90.0443299 C51.7814669,90.0178694 52.0848524,90.0357388 52.4137209,90.0989691 C52.7429338,90.1621993 53.0587165,90.2656357 53.3614132,90.4092784 C53.7798166,90.6109966 54.1207379,90.8570447 54.3824553,91.1474227 C54.644517,91.4378007 54.8563014,91.804811 55.0188417,92.2474227" id="Fill-27" fill="#0074B0"></path>
            <path d="M54.2984302,95.5573883 C54.4671691,95.4274914 54.6469275,95.3161512 54.7915608,95.2439863 C54.9361941,95.1683849 55.0911583,95.1134021 55.2595528,95.0824742 C55.3528757,95.0652921 55.4561852,95.0652921 55.5663819,95.0790378 C55.6800224,95.0927835 55.7867755,95.1271478 55.8935286,95.1821306 C56.0002818,95.2371134 56.1528354,95.2945017 56.2000134,95.4089347 C56.2444365,95.5168385 56.0984258,95.6841924 56.0106127,95.7934708 C55.9279651,95.9068729 55.8453175,96.0065292 55.7592263,96.0893471 C55.7592263,96.0893471 55.404186,96.4219931 55.0670528,96.6701031 C54.8604338,96.8209622 54.6882513,96.9003436 54.5432737,96.9103093 C54.353873,96.9206186 54.1816905,96.8762887 54.0267263,96.7835052 C53.8721064,96.6907216 53.7791279,96.556701 53.7481351,96.3883162 C53.7236852,96.2611684 53.7722406,96.1237113 53.8893247,95.9756014 C53.8893247,95.9756014 54.1252147,95.6907216 54.2984302,95.5573883 Z M56.7131172,92.975945 L57.6115653,92.8109966 L57.4362835,91.8591065 L52.3737746,92.7938144 L52.5494007,93.7453608 L55.7798882,93.1477663 L56.0691547,94.7113402 C55.9382961,94.5704467 55.7313327,94.4398625 55.4424106,94.3264605 C55.1083766,94.1886598 54.8122227,94.1408935 54.553949,94.1886598 C54.161373,94.2608247 53.8032335,94.4776632 53.4726431,94.8350515 C53.1110599,95.2371134 52.9664267,95.652921 53.0487299,96.0824742 C53.1317218,96.5395189 53.3968828,96.9484536 53.8407692,97.3024055 C54.285,97.6597938 54.681364,97.8041237 55.0326163,97.738488 C55.345644,97.6835052 55.6283676,97.5666667 55.875966,97.3948454 C56.1242531,97.2199313 56.3102102,96.9862543 56.4372809,96.6938144 L56.6029204,97.5975945 L57.7148748,98.3780069 L56.7131172,92.975945 Z" id="Fill-28" fill="#0074B0"></path>
            <path d="M62.2790877,91.4020619 L59.5458631,92.2216495 L60.0441592,92.9085911 C60.2070438,92.8054983 60.3537433,92.7347079 60.4832245,92.6958763 C60.8961181,92.5718213 61.316932,92.6219931 61.7463551,92.8450172 C61.9874106,92.971134 62.181288,93.1460481 62.3279875,93.3687285 C62.4743426,93.5907216 62.5962478,93.8632302 62.6930143,94.1865979 C62.7532782,94.385567 62.7825492,94.5707904 62.7815161,94.7426117 C62.7801386,94.9147766 62.7598211,95.1103093 62.7198748,95.3295533 L61.6437343,94.8793814 C61.7201834,94.7206186 61.7721825,94.6013746 61.8007648,94.5202749 C61.900975,94.237457 61.9288685,94.0213058 61.8837567,93.8718213 C61.8210823,93.6646048 61.731203,93.4972509 61.6130859,93.3697595 C61.4956574,93.242268 61.3558453,93.2034364 61.1936494,93.2515464 C60.9990832,93.3099656 60.8041726,93.4250859 60.6092621,93.5962199 C60.4129741,93.7676976 60.3148301,93.880756 60.3134526,93.9347079 C60.3458229,94.0426117 60.3733721,94.1560137 60.3961002,94.2752577 C60.4191726,94.395189 60.4363909,94.4893471 60.4484436,94.5580756 C60.4598077,94.6264605 60.4611852,94.7412371 60.4522317,94.9017182 C60.4429338,95.0621993 60.4622182,95.175945 60.5090519,95.243299 C60.6285465,95.4061856 60.8520394,95.5463918 61.1788417,95.6646048 C61.3568784,95.728866 61.534915,95.7927835 61.7132961,95.8563574 C62.2739222,96.0762887 62.8128533,96.2257732 63.3314669,96.304811 L63.2309123,96.8491409 C63.2037075,96.8487973 62.9960555,96.7896907 62.6076118,96.6718213 C61.7318918,96.4041237 61.0514267,96.1587629 60.5651834,95.9353952 C60.0785957,95.7127148 59.6433184,95.4611684 59.2586628,95.180756 C58.7948032,94.843299 58.5244767,94.5463918 58.447339,94.2907216 C58.407737,94.1591065 58.41428,94.0491409 58.4676565,93.9611684 C58.4979606,93.9161512 58.5413506,93.8848797 58.5985152,93.8680412 C58.6226208,93.8604811 58.7097451,93.856701 58.8598882,93.8570447 C58.9215295,93.856701 58.9762835,93.8487973 59.0251834,93.8343643 C59.0658184,93.8219931 59.1026655,93.7975945 59.1353801,93.7608247 C59.2125179,93.6659794 59.2534973,93.5587629 59.2579741,93.4408935 C59.2617621,93.3226804 59.2400671,93.1852234 59.1928891,93.0285223 C59.1160957,92.7728522 58.9583766,92.5865979 58.7197317,92.4690722 L57.5540564,92.8185567 L57.2747764,91.8910653 L61.9994633,90.4742268 L62.2790877,91.4020619" id="Fill-29" fill="#0074B0"></path>
            <path d="M68.1343247,94.0189003 L67.683551,93.7776632 L66.8253936,94.6006873 C66.7341369,94.6869416 66.6728399,94.7958763 66.6421914,94.9268041 C66.6115429,95.057732 66.6204964,95.1776632 66.6680188,95.2886598 C66.6924687,95.3436426 66.7358587,95.390378 66.7985331,95.4292096 C66.924915,95.4872852 67.0468202,95.4907216 67.1628712,95.4402062 C67.2713462,95.3931271 67.3756887,95.3147766 67.4758989,95.2061856 C67.5933274,95.05189 67.6801073,94.9443299 67.7358945,94.8821306 C67.8564222,94.7360825 67.9473345,94.6006873 68.0082871,94.4752577 C68.0692397,94.3505155 68.1115966,94.1986254 68.1343247,94.0189003 Z M67.9910689,88.9549828 L66.6067218,89.5549828 L67.3805098,91.332646 L66.0078712,91.9271478 C65.7440877,92.0412371 65.544356,92.233677 65.4083318,92.5041237 C65.2723077,92.7735395 65.2557782,93.0271478 65.3590877,93.2646048 C65.3759615,93.3037801 65.4252057,93.3793814 65.5050984,93.4896907 C65.5860242,93.6003436 65.7334123,93.6749141 65.9479517,93.7134021 C66.1628354,93.75189 66.3753086,93.7254296 66.5846825,93.6343643 C66.7396467,93.567354 66.8605188,93.4635739 66.9469544,93.3230241 C66.8928891,93.2618557 66.8501878,93.1955326 66.819195,93.1247423 C66.7434347,92.9512027 66.7282826,92.7721649 66.7723614,92.5886598 C66.8171288,92.4051546 66.909763,92.2639175 67.051297,92.1652921 C67.2434526,92.0347079 67.4631574,92.0099656 67.7104114,92.0907216 C67.9573211,92.1718213 68.130881,92.3264605 68.2307469,92.5553265 C68.3023748,92.7213058 68.3313014,92.8828179 68.3161494,93.0388316 C68.3013417,93.1958763 68.2359123,93.3412371 68.1198614,93.4766323 L69.5424329,94.2683849 L69.401932,94.6109966 L68.8939937,94.366323 C68.8110018,94.5993127 68.7379964,94.7810997 68.6749776,94.9120275 C68.4814445,95.3147766 68.301686,95.5687285 68.1357021,95.6735395 C67.9693739,95.7786942 67.8316279,95.8546392 67.723153,95.9017182 C67.4128801,96.0360825 67.1294678,96.067354 66.8725716,95.9955326 C66.6153309,95.924055 66.3515474,95.7680412 66.0815653,95.5285223 C66.041619,95.5642612 65.9992621,95.5924399 65.9520841,95.6127148 C65.6731485,95.733677 65.2991682,95.7219931 64.8304875,95.5776632 C64.3098077,95.4185567 63.9774955,95.1731959 63.8328623,94.8412371 C63.6747987,94.4776632 63.6489714,94.2072165 63.7560689,94.0292096 C63.7725984,94.0034364 63.9334168,93.8542955 64.2385242,93.5810997 L65.0953041,94.4068729 C64.8707782,94.5044674 64.7299329,94.5838488 64.6738014,94.6453608 C64.6183587,94.7075601 64.6090608,94.7817869 64.646941,94.8687285 C64.6679472,94.9161512 64.7027281,94.966323 64.7540385,95.019244 C64.8879964,95.1587629 65.1039132,95.2199313 65.4011002,95.2037801 C65.5002773,95.1982818 65.6418113,95.1745704 65.8260465,95.1323024 C65.7984973,95.0694158 65.7716369,95.0058419 65.7437433,94.9426117 C65.7213596,94.8487973 65.7192934,94.7278351 65.7375447,94.5790378 C65.7554517,94.4302405 65.8105501,94.3130584 65.9021512,94.2264605 C65.8005635,94.204811 65.5984213,94.0477663 65.2964132,93.7563574 C64.9434392,93.4116838 64.6968739,93.0773196 64.5556843,92.7536082 C64.4182826,92.437457 64.4014088,92.1185567 64.505407,91.7962199 C64.6100939,91.4745704 64.8132692,91.2477663 65.1156216,91.1164948 L66.3722093,90.5721649 L66.0367979,89.8020619 L62.2325984,91.4501718 L61.8458766,90.5618557 L67.604347,88.066323 L67.9910689,88.9549828 Z" id="Fill-30" fill="#0074B0"></path>
            <path d="M74.8308453,84.4573883 L74.0305411,85.0158076 L75.0543381,86.4766323 L73.3800358,87.6439863 C73.2970438,87.7020619 73.2402236,87.7859107 73.2092308,87.8972509 C73.1789267,88.0075601 73.1906351,88.1017182 73.2450447,88.1797251 C73.29911,88.257732 73.3824463,88.3068729 73.495398,88.3281787 C73.6086941,88.3494845 73.6899642,88.3213058 73.7385197,88.2443299 C73.8449284,88.0865979 73.9392844,87.952921 74.0222764,87.8426117 C74.104924,87.7319588 74.1979025,87.6412371 74.3022451,87.5683849 C74.3366816,87.5439863 74.4003891,87.5106529 74.493712,87.466323 C74.8639043,87.3027491 75.242017,87.2756014 75.6280501,87.3848797 C76.0137388,87.4941581 76.3250447,87.7178694 76.5623122,88.056701 C76.7059123,88.261512 76.785805,88.4975945 76.8023345,88.7639175 C76.818864,89.0312715 76.7930367,89.2621993 76.7231306,89.457732 L75.8105635,89.2587629 C75.9083631,89.0646048 75.9748256,88.9130584 76.0106395,88.8037801 C76.1194589,88.4656357 76.1163596,88.2154639 76.0027191,88.052921 C75.9682826,88.0037801 75.9255814,87.9652921 75.8756485,87.9371134 C75.7478891,87.857732 75.6190966,87.8274914 75.4875492,87.8446735 C75.3566905,87.862543 75.2254875,87.9168385 75.0946288,88.0085911 C74.9847764,88.085567 74.8976521,88.167354 74.8346333,88.252921 C74.6197496,88.5608247 74.4809705,88.8309278 74.4182961,89.0642612 C74.3390921,89.361512 74.3645751,89.6542955 74.4947451,89.942268 C74.5074866,89.975945 74.5309034,90.0171821 74.5660286,90.0666667 C74.7340787,90.3065292 75.053305,90.4268041 75.5219857,90.4261168 C75.7117308,90.4199313 76.0009973,90.3810997 76.3901297,90.3099656 L78.3299374,90.0030928 L78.5957871,90.3859107 L76.5512925,90.7594502 C76.0802013,90.8773196 75.5323166,90.8917526 74.9069499,90.8030928 C74.3707737,90.7254296 74.0060912,90.5484536 73.8135912,90.2735395 C73.6352102,90.019244 73.5195036,89.7687285 73.4657826,89.5226804 C73.4117174,89.2762887 73.4206708,89.0134021 73.4926431,88.7316151 C73.4289356,88.7446735 73.2650179,88.7017182 72.9998569,88.6027491 C72.6768426,88.480756 72.456449,88.3350515 72.3379875,88.1659794 C72.2887433,88.0955326 72.2605054,88.0412371 72.2549955,88.0034364 C72.2012746,87.8092784 72.1981753,87.6278351 72.2450089,87.4584192 C72.2914982,87.2896907 72.3906753,87.1515464 72.5439177,87.0453608 L73.7908631,86.175945 L73.3239043,85.5089347 L71.2339535,86.9656357 L70.7005322,86.2030928 L74.2977683,83.695189 L74.8308453,84.4573883" id="Fill-31" fill="#0074B0"></path>
            <polyline id="Fill-32" fill="#0074B0" points="76.9039222 82.7704467 76.1480411 83.3869416 79.6302594 87.6412371 78.0444589 87.3646048 75.332585 84.0512027 74.7237478 84.5477663 74.1097451 83.7972509 76.2899195 82.0199313 76.9039222 82.7704467"></polyline>
            <path d="M81.0063417,81.471134 L79.6905233,80.1353952 L78.3433676,81.4570447 L79.659186,82.7931271 L81.0063417,81.471134 Z M81.101042,78.7512027 L80.4498479,79.3900344 L84.3094902,83.3072165 L82.7867084,83.2776632 L81.7959705,82.2721649 L80.4484705,83.5941581 L81.1203265,84.275945 C81.2167487,84.3745704 81.2439535,84.462543 81.201941,84.5395189 C81.1778354,84.6 81.1134392,84.624055 81.0073748,84.6130584 C80.9016547,84.6020619 80.8369141,84.5965636 80.8124642,84.5958763 L78.9012388,84.5147766 C78.695653,84.4986254 78.5472317,84.4209622 78.4566637,84.2804124 C78.3719499,84.1587629 78.3840027,84.0439863 78.4924776,83.937457 L78.9349866,83.5027491 L77.6195125,82.1670103 L76.9139088,82.8594502 L76.2334436,82.1683849 L80.3665116,78.1137457 L81.101042,78.7512027 Z" id="Fill-33" fill="#0074B0"></path>
            <path d="M82.9540698,76.509622 L82.2977102,77.2814433 L86.4762343,80.8182131 L85.0212925,80.9642612 L81.6169007,78.0824742 L81.0425,78.7584192 L80.2824866,78.1151203 L80.987746,77.2848797 C80.759432,77.0914089 80.4460599,76.9910653 80.0483184,76.9845361 C79.7466547,76.9824742 79.4880367,77.0223368 79.2724642,77.1044674 C79.0575805,77.1859107 78.8788551,77.3099656 78.7373211,77.4762887 C78.5413775,77.7068729 78.4725045,77.937457 78.5310465,78.1687285 C78.5892442,78.3993127 78.7039177,78.5876289 78.8747227,78.7323024 C79.0861628,78.9103093 79.3172317,78.9910653 79.5703399,78.9725086 L79.2094454,79.3969072 C78.8075716,79.4443299 78.4387567,79.3254296 78.1026565,79.0412371 C77.8726208,78.8463918 77.7169678,78.6041237 77.6353533,78.3137457 C77.4945081,77.8402062 77.5988506,77.3979381 77.9490698,76.9862543 C77.9821288,76.9474227 78.0144991,76.9085911 78.0472138,76.8701031 C78.104034,76.8298969 78.143636,76.7965636 78.1653309,76.771134 C78.3678175,76.5993127 78.6095617,76.5 78.8912522,76.4731959 C78.9277549,76.4707904 79.2094454,76.4762887 79.7366682,76.4914089 C79.9918426,76.4969072 80.323466,76.5563574 80.7329159,76.6707904 C81.0686717,76.7666667 81.2711583,76.832646 81.34072,76.8697595 L82.1940564,75.866323 L82.9540698,76.509622" id="Fill-34" fill="#0074B0"></path>
        </g>
    </g>
</svg>