<?xml version="1.0" encoding="UTF-8"?>
<svg width="1430px" height="822px" viewBox="0 0 1430 822" version="1.1" xmlns="http://www.w3.org/2000/svg" xmlns:xlink="http://www.w3.org/1999/xlink">
    <!-- Generator: Sketch 53 (72520) - https://sketchapp.com -->
    <title>KG_download-app_section Copy</title>
    <desc>Created with Sketch.</desc>
    <defs>
        <rect id="path-1" x="0" y="0" width="1440" height="822"></rect>
    </defs>
    <g id="KG_download-app_section-Copy" stroke="none" stroke-width="1" fill="none" fill-rule="evenodd">
        <mask id="mask-2" fill="white">
            <use xlink:href="#path-1"></use>
        </mask>
        <use id="Mask" fill="#FFFFFF" fill-rule="nonzero" xlink:href="#path-1"></use>
        <g id="Group" mask="url(#mask-2)">
            <g transform="translate(-102.000000, 379.000000)">
                <path d="M56,220.270548 C215.333333,66.2705479 381.5,25.2705479 554.5,97.2705479 C641.300807,133.395739 721.178715,145.60546 794.133724,133.899711 C866.583083,122.275094 910.5,66.5410959 991,28.2705479 C1071.5,-10 1159.5,-33.2294521 1302.5,124.270548 C1397.83333,229.270548 1488.16667,229.270548 1573.5,124.270548 L1573.5,492.5 L56,492.5 L56,220.270548 Z" id="3" fill-opacity="0.5" fill="#E2E2E2"></path>
                <path d="M0,358.290314 C215.333333,179.898496 404.833333,157.058043 568.5,289.768953 C814,488.835319 881.5,274.801191 927.5,189.94042 C973.5,105.079648 1068.5,-50.4750429 1235.5,303.355085 C1346.83333,539.241837 1469,470.326676 1602,96.6096013 L1602,533 L0,528.412312 L0,358.290314 Z" id="2" fill="#9013FE" opacity="0.200000003"></path>
                <path d="M66,292.363919 C236.253048,143.615039 413.807743,104.013064 598.664086,173.557995 C691.41368,208.451383 776.765922,220.244775 854.720813,208.93817 C932.1354,197.709932 961.5,120.655023 1061,87.8143611 C1160.5,54.9736992 1245.12702,47.5078074 1397.92735,199.637344 C1499.79423,301.057035 1596.31845,301.057035 1687.5,199.637344 L1687.5,487.5 L66,503 L66,292.363919 Z" id="1" fill="#4A90E2" opacity="0.518229167" transform="translate(876.750000, 285.696107) scale(-1, 1) translate(-876.750000, -285.696107) "></path>
            </g>
        </g>
    </g>
</svg>